<?xml version="1.0" encoding="utf-8"?>
<!-- Generator: Adobe Illustrator 22.1.0, SVG Export Plug-In . SVG Version: 6.00 Build 0)  -->
<svg version="1.1" id="Layer_1" xmlns="http://www.w3.org/2000/svg" xmlns:xlink="http://www.w3.org/1999/xlink" x="0px" y="0px"
	 viewBox="0 0 1000 191.5" style="enable-background:new 0 0 1000 191.5;" xml:space="preserve">
<style type="text/css">
	.st0{fill:#FFFFFF;}
</style>
<g>
	<g>
		<g>
			<path class="st0" d="M669.6,131.1c-1.4,1.9-3.6,4.1-6.7,6.7c-3.1,2.5-6.6,5.1-10.6,7.6c-4,2.5-9.1,4.7-15.2,6.5
				c-6.1,1.8-12.5,2.8-19.1,2.8c-17.2,0-31.5-5.8-43-17.3c-11.3-11.3-17.1-25.4-17.3-42.2h0c0.1-16.9,5.9-31.2,17.3-42.6
				c11.5-11.5,25.9-17.3,43-17.3c6.7,0,13,0.9,19.1,2.8c6.1,1.8,11.2,4,15.2,6.5c4,2.5,7.6,5.1,10.6,7.6c3.1,2.6,5.3,4.8,6.7,6.7
				l2.1,2.7l23.7-24.9c-0.7-1-1.7-2.4-3.1-4c-1.4-1.6-4.5-4.6-9.4-8.8c-4.8-4.2-10-7.9-15.5-11.1c-5.5-3.2-12.7-6.1-21.6-8.8
				c-8.9-2.7-18.2-4-27.7-4c-28,0-51.6,9.4-70.9,28.1c-19.1,18.5-28.7,41-28.8,67h0c0.1,26.1,9.8,48.4,28.9,67
				c19.3,18.7,42.9,28.1,70.9,28.1c9.6,0,18.8-1.3,27.7-4c8.9-2.6,16.1-5.5,21.6-8.8c5.5-3.2,10.7-6.9,15.5-11.1
				c4.8-4.2,8-7.2,9.4-8.8c1.4-1.7,2.5-3,3.1-4l-23.7-24.9L669.6,131.1z"/>
		</g>
		<g>
			<path class="st0" d="M782.6,136.9c-12.2,12-26.5,18-43.1,18c-16.5,0-30.9-6-43.1-18c-12.2-12-18.3-26-18.3-42.1
				c0-16,6.1-30.1,18.3-42.1c12.2-12,26.6-18,43.1-18c16.5,0,30.9,6,43.1,18c12.2,12,18.3,26,18.3,42.1
				C800.8,110.9,794.8,124.9,782.6,136.9z M719.5,116.6c5.6,5.9,12.3,8.8,20,8.8c7.7,0,14.3-2.9,20-8.8c5.6-5.9,8.4-13.1,8.4-21.8
				s-2.8-15.9-8.4-21.8c-5.6-5.9-12.3-8.9-20-8.9c-7.7,0-14.3,3-20,8.9c-5.6,5.9-8.4,13.2-8.4,21.8S713.9,110.8,719.5,116.6z"/>
		</g>
		<g>
			<path class="st0" d="M878.6,67.3c-2.3-0.7-5.8-1.2-10.3-1.2c-8.2,0-14.6,2.6-19.4,7.7c-4.8,5.2-7.1,12.6-7.1,22.2v53.9h-31V39.4
				h31v11.7c0.9-1,2.2-2.4,3.8-4.1c1.6-1.7,5.3-3.9,10.8-6.7c5.6-2.8,11.4-4.1,17.6-4.1h4.6V67.3z"/>
		</g>
		<g>
			<path class="st0" d="M915,105.3c1.2,6.3,4.5,11.6,10,16c5.4,4.4,12.3,6.5,20.6,6.6c6,0,11.6-1.1,16.7-3.5c5.1-2.3,8.7-4.7,10.8-7
				l3.4-3.6l16.4,21.2l-2.1,2.1c-1,1-3,2.6-6.2,4.9c-3.2,2.3-6.5,4.3-10.1,6.1c-3.5,1.8-8.1,3.4-13.8,4.7s-11.5,2-17.5,2
				c-17-0.1-31.5-6-43.4-17.8c-12-11.8-17.9-26-17.9-42.5c0.1-16.5,6-30.6,17.9-42.4c11.9-11.7,26.1-17.6,42.6-17.5
				c16.5,0.1,30.3,5.6,41.2,16.7c11,11,16.4,24.8,16.4,41.3l-1.2,12.9L915,105.3z M925.1,67.7c-4.7,3.9-8.1,9-10,15.3l53.2,0.2
				c-1.2-6.1-4.1-11.2-8.8-15.2c-4.6-4-10.3-6-17.1-6S929.8,63.8,925.1,67.7z"/>
		</g>
		<g>
			<path class="st0" d="M490.6,137c-12.2,12-26.5,18-43.1,18c-16.5,0-30.9-6-43.1-18c-12.2-12-18.3-26-18.3-42.1
				c0-16,6.1-30.1,18.3-42.1c12.2-12,26.6-18,43.1-18c16.5,0,30.9,6,43.1,18c12.2,12,18.3,26,18.3,42.1
				C508.8,111,502.7,125,490.6,137z M427.5,116.7c5.6,5.9,12.3,8.8,20,8.8c7.7,0,14.3-2.9,20-8.8c5.6-5.9,8.4-13.1,8.4-21.8
				s-2.8-15.9-8.4-21.8c-5.6-5.9-12.3-8.9-20-8.9c-7.7,0-14.3,3-20,8.9c-5.6,5.9-8.4,13.2-8.4,21.8S421.9,110.9,427.5,116.7z"/>
		</g>
		<g>
			<path class="st0" d="M306.2,147.2c-5.5-2.6-9.4-5.2-11.7-7.8l-3.4-4.1v56.2h-30.7V39.6h30.7v11.6c0.3-0.4,0.8-1,1.4-1.7
				c0.6-0.7,2-1.9,4-3.7c2-1.8,4.2-3.4,6.6-4.9c2.4-1.4,5.4-2.7,9.2-3.9c3.8-1.1,7.7-1.7,11.8-1.7c14.5,0,27,5.6,37.6,16.8
				c10.6,11.2,16,24.9,16,41.1c0,16.2-5.3,29.9-16,41.1c-10.6,11.2-23.2,16.8-37.6,16.8C317.7,151.2,311.8,149.9,306.2,147.2z
				 M299.1,71.2c-5.3,5.7-8,13.1-8,22c0,9,2.7,16.3,8,22.1c5.3,5.8,11.8,8.7,19.4,8.7c7.6,0,14-2.9,19.3-8.7
				c5.3-5.8,7.9-13.1,7.9-22.1c0-9-2.6-16.3-7.9-22c-5.3-5.7-11.7-8.6-19.3-8.6C310.9,62.6,304.4,65.5,299.1,71.2z"/>
		</g>
		<g>
			<polygon class="st0" points="129.3,39.5 129.3,2.5 36.9,2.5 0,2.5 0,39.5 0,150.3 0,187.3 36.9,187.3 129.3,187.3 129.3,150.3 
				36.9,150.3 36.9,113.4 110.8,113.4 110.8,76.4 36.9,76.4 36.9,39.5 			"/>
		</g>
		<g>
			<polygon class="st0" points="250.4,39.5 213.5,39.5 195,67.2 176.5,39.5 139.6,39.5 176.5,94.9 139.6,150.3 176.5,150.3 
				195,122.6 213.5,150.3 250.4,150.3 213.5,94.9 			"/>
		</g>
	</g>
</g>
</svg>
